<svg data-logo="logo" xmlns="http://www.w3.org/2000/svg" viewBox="0 0 163 43">
        <g id="logogram" transform="translate(0, 1) rotate(0)"><path fill-rule="evenodd" clip-rule="evenodd" d="M20.9053 40.0799C31.951 40.0799 40.9053 31.1256 40.9053 20.0799C40.9053 9.03427 31.951 0.0799561 20.9053 0.0799561C9.85956 0.0799561 0.905273 9.03427 0.905273 20.0799C0.905273 31.1256 9.85956 40.0799 20.9053 40.0799ZM27.1446 9.3968C27.4483 8.31801 26.4014 7.68008 25.4453 8.36125L12.0984 17.8695C11.0615 18.6082 11.2246 20.0799 12.3434 20.0799H15.858V20.0527H22.7078L17.1265 22.022L14.666 30.7631C14.3623 31.8419 15.4091 32.4798 16.3653 31.7986L29.7122 22.2904C30.7491 21.5517 30.5859 20.0799 29.4672 20.0799H24.1374L27.1446 9.3968Z" fill="#F54A00"></path></g>
        <g id="logotype" transform="translate(47, 8)"><path fill="09090b" d="M6.21 8.51L16.97 8.51L16.97 12.00L6.21 12.00L6.21 8.51ZM8.87 21.92L8.87 3.95L13.79 3.95L13.79 21.43Q13.79 22.23 14.01 22.66Q14.22 23.09 14.65 23.25Q15.07 23.41 15.72 23.41L15.72 23.41Q16.19 23.41 16.55 23.37Q16.92 23.33 17.18 23.27L17.18 23.27L17.19 26.90Q16.56 27.10 15.83 27.22Q15.09 27.34 14.20 27.34L14.20 27.34Q12.58 27.34 11.37 26.80Q10.17 26.27 9.52 25.07Q8.87 23.87 8.87 21.92L8.87 21.92ZM18.27 17.94L18.27 17.94L18.27 17.58Q18.27 15.55 18.85 13.83Q19.43 12.11 20.54 10.85Q21.65 9.59 23.28 8.88Q24.90 8.17 27.00 8.17L27.00 8.17Q29.11 8.17 30.75 8.88Q32.39 9.59 33.51 10.85Q34.63 12.11 35.21 13.83Q35.79 15.55 35.79 17.58L35.79 17.58L35.79 17.94Q35.79 19.96 35.21 21.68Q34.63 23.39 33.51 24.67Q32.39 25.94 30.76 26.64Q29.14 27.34 27.04 27.34L27.04 27.34Q24.94 27.34 23.30 26.64Q21.67 25.94 20.55 24.67Q19.43 23.39 18.85 21.68Q18.27 19.96 18.27 17.94ZM23.19 17.58L23.19 17.58L23.19 17.94Q23.19 19.10 23.40 20.11Q23.60 21.12 24.06 21.88Q24.51 22.64 25.24 23.07Q25.98 23.50 27.04 23.50L27.04 23.50Q28.06 23.50 28.80 23.07Q29.53 22.64 29.98 21.88Q30.42 21.12 30.64 20.11Q30.85 19.10 30.85 17.94L30.85 17.94L30.85 17.58Q30.85 16.46 30.64 15.46Q30.42 14.46 29.97 13.68Q29.52 12.90 28.78 12.46Q28.05 12.01 27.00 12.01L27.00 12.01Q25.96 12.01 25.24 12.46Q24.51 12.90 24.06 13.68Q23.60 14.46 23.40 15.46Q23.19 16.46 23.19 17.58ZM42.62 8.51L42.93 12.46L42.93 27L38.01 27L38.01 8.51L42.62 8.51ZM42.21 17.10L42.21 17.10L40.88 17.10Q40.88 15.05 41.41 13.41Q41.94 11.76 42.90 10.59Q43.86 9.41 45.18 8.79Q46.50 8.17 48.14 8.17L48.14 8.17Q49.44 8.17 50.52 8.54Q51.60 8.92 52.37 9.74Q53.15 10.56 53.57 11.91Q53.99 13.26 53.99 15.21L53.99 15.21L53.99 27L49.03 27L49.03 15.19Q49.03 13.96 48.69 13.28Q48.35 12.59 47.69 12.31Q47.03 12.03 46.08 12.03L46.08 12.03Q45.09 12.03 44.36 12.42Q43.63 12.82 43.16 13.51Q42.69 14.20 42.45 15.12Q42.21 16.05 42.21 17.10ZM57.29 8.51L62.23 8.51L62.23 27L57.29 27L57.29 8.51ZM56.98 3.69L56.98 3.69Q56.98 2.61 57.73 1.91Q58.48 1.21 59.75 1.21L59.75 1.21Q61.00 1.21 61.76 1.91Q62.52 2.61 62.52 3.69L62.52 3.69Q62.52 4.77 61.76 5.47Q61.00 6.17 59.75 6.17L59.75 6.17Q58.48 6.17 57.73 5.47Q56.98 4.77 56.98 3.69ZM71.87 6.87L71.87 27L66.91 27L66.91 6.87Q66.91 4.77 67.74 3.32Q68.57 1.88 70.08 1.13Q71.59 0.39 73.68 0.39L73.68 0.39Q74.36 0.39 74.99 0.49Q75.63 0.58 76.22 0.72L76.22 0.72L76.17 4.42Q75.85 4.34 75.49 4.30Q75.13 4.27 74.65 4.27L74.65 4.27Q73.76 4.27 73.14 4.57Q72.52 4.87 72.19 5.45Q71.87 6.03 71.87 6.87L71.87 6.87ZM64.16 8.51L75.56 8.51L75.56 12.00L64.16 12.00L64.16 8.51ZM77.68 8.51L82.62 8.51L82.62 27L77.68 27L77.68 8.51ZM77.37 3.69L77.37 3.69Q77.37 2.61 78.12 1.91Q78.87 1.21 80.14 1.21L80.14 1.21Q81.39 1.21 82.15 1.91Q82.91 2.61 82.91 3.69L82.91 3.69Q82.91 4.77 82.15 5.47Q81.39 6.17 80.14 6.17L80.14 6.17Q78.87 6.17 78.12 5.47Q77.37 4.77 77.37 3.69ZM94.50 27.34L94.50 27.34Q92.34 27.34 90.63 26.65Q88.92 25.96 87.74 24.73Q86.55 23.50 85.92 21.86Q85.28 20.23 85.28 18.39L85.28 18.39L85.28 17.70Q85.28 15.60 85.88 13.86Q86.48 12.11 87.60 10.83Q88.72 9.55 90.33 8.86Q91.93 8.17 93.95 8.17L93.95 8.17Q95.91 8.17 97.43 8.82Q98.96 9.47 99.99 10.66Q101.02 11.86 101.55 13.52Q102.08 15.19 102.08 17.22L102.08 17.22L102.08 19.28L87.39 19.28L87.39 15.99L97.25 15.99L97.25 15.62Q97.25 14.59 96.88 13.78Q96.51 12.97 95.78 12.49Q95.04 12.01 93.90 12.01L93.90 12.01Q92.92 12.01 92.22 12.44Q91.52 12.87 91.09 13.64Q90.65 14.40 90.44 15.44Q90.22 16.47 90.22 17.70L90.22 17.70L90.22 18.39Q90.22 19.50 90.54 20.44Q90.86 21.38 91.44 22.06Q92.03 22.74 92.88 23.12Q93.73 23.50 94.80 23.50L94.80 23.50Q96.14 23.50 97.29 22.98Q98.44 22.45 99.28 21.39L99.28 21.39L101.67 23.99Q101.09 24.83 100.09 25.60Q99.09 26.37 97.69 26.85Q96.29 27.34 94.50 27.34ZM108.82 8.51L109.11 12.54L109.11 27L104.19 27L104.19 8.51L108.82 8.51ZM114.68 8.39L114.68 8.39L114.59 12.95Q114.23 12.90 113.73 12.86Q113.23 12.82 112.82 12.82L112.82 12.82Q111.77 12.82 111.01 13.08Q110.25 13.35 109.75 13.86Q109.24 14.37 109.00 15.11Q108.75 15.84 108.71 16.78L108.71 16.78L107.72 16.47Q107.72 14.68 108.08 13.17Q108.44 11.65 109.13 10.53Q109.83 9.40 110.83 8.78Q111.84 8.17 113.14 8.17L113.14 8.17Q113.55 8.17 113.98 8.23Q114.41 8.29 114.68 8.39Z"></path></g>
        
      </svg>