
      <svg data-logo="logo" xmlns="http://www.w3.org/2000/svg" viewBox="0 0 78 25">
        <g id="logogram" transform="translate(0, 12.5) rotate(0) "></g>
        <g id="logotype" transform="translate(0, 1)"><path fill="#ffffff" d="M2.49 4.63L2.49 4.63L10.78 4.63Q11.62 4.63 12.18 5.18Q12.74 5.74 12.74 6.58L12.74 6.58Q12.74 7.39 12.18 7.93Q11.62 8.47 10.78 8.47L10.78 8.47L2.49 8.47Q1.65 8.47 1.09 7.91Q0.53 7.35 0.53 6.51L0.53 6.51Q0.53 5.71 1.09 5.17Q1.65 4.63 2.49 4.63ZM6.23 0.25L6.23 0.25Q7.14 0.25 7.72 0.86Q8.29 1.47 8.29 2.38L8.29 2.38L8.29 17.96Q8.29 18.45 8.49 18.77Q8.68 19.08 9.01 19.22Q9.35 19.36 9.73 19.36L9.73 19.36Q10.15 19.36 10.50 19.20Q10.85 19.04 11.31 19.04L11.31 19.04Q11.80 19.04 12.20 19.50Q12.60 19.95 12.60 20.76L12.60 20.76Q12.60 21.74 11.53 22.37Q10.47 23 9.24 23L9.24 23Q8.51 23 7.61 22.88Q6.72 22.75 5.93 22.28Q5.15 21.81 4.62 20.83Q4.10 19.85 4.10 18.13L4.10 18.13L4.10 2.38Q4.10 1.47 4.71 0.86Q5.32 0.25 6.23 0.25ZM34.58 13.65L34.58 13.65Q34.58 16.52 33.30 18.71Q32.03 20.90 29.87 22.13Q27.72 23.35 25.06 23.35L25.06 23.35Q22.40 23.35 20.25 22.13Q18.10 20.90 16.82 18.71Q15.54 16.52 15.54 13.65L15.54 13.65Q15.54 10.78 16.82 8.60Q18.10 6.41 20.25 5.17Q22.40 3.92 25.06 3.92L25.06 3.92Q27.72 3.92 29.87 5.17Q32.03 6.41 33.30 8.60Q34.58 10.78 34.58 13.65ZM30.38 13.65L30.38 13.65Q30.38 11.87 29.66 10.56Q28.95 9.24 27.74 8.51Q26.53 7.77 25.06 7.77L25.06 7.77Q23.59 7.77 22.38 8.51Q21.18 9.24 20.46 10.56Q19.74 11.87 19.74 13.65L19.74 13.65Q19.74 15.40 20.46 16.72Q21.18 18.03 22.38 18.77Q23.59 19.50 25.06 19.50L25.06 19.50Q26.53 19.50 27.74 18.77Q28.95 18.03 29.66 16.72Q30.38 15.40 30.38 13.65ZM48.27 3.92L48.27 3.92Q50.86 3.92 52.20 5.01Q53.55 6.09 54.06 7.90Q54.57 9.70 54.57 11.90L54.57 11.90L54.57 20.86Q54.57 21.77 53.97 22.39Q53.38 23 52.47 23L52.47 23Q51.56 23 50.96 22.39Q50.37 21.77 50.37 20.86L50.37 20.86L50.37 11.90Q50.37 10.75 50.07 9.82Q49.77 8.89 49.00 8.33Q48.23 7.77 46.80 7.77L46.80 7.77Q45.40 7.77 44.43 8.33Q43.47 8.89 42.96 9.82Q42.46 10.75 42.46 11.90L42.46 11.90L42.46 20.86Q42.46 21.77 41.86 22.39Q41.27 23 40.36 23L40.36 23Q39.45 23 38.85 22.39Q38.26 21.77 38.26 20.86L38.26 20.86L38.26 6.41Q38.26 5.50 38.85 4.89Q39.45 4.27 40.36 4.27L40.36 4.27Q41.27 4.27 41.86 4.89Q42.46 5.50 42.46 6.41L42.46 6.41L42.46 7.91L41.93 7.81Q42.25 7.21 42.84 6.53Q43.44 5.85 44.24 5.25Q45.05 4.66 46.06 4.29Q47.08 3.92 48.27 3.92ZM77.28 13.65L77.28 13.65Q77.28 16.52 76.00 18.71Q74.73 20.90 72.57 22.13Q70.42 23.35 67.76 23.35L67.76 23.35Q65.10 23.35 62.95 22.13Q60.80 20.90 59.52 18.71Q58.24 16.52 58.24 13.65L58.24 13.65Q58.24 10.78 59.52 8.60Q60.80 6.41 62.95 5.17Q65.10 3.92 67.76 3.92L67.76 3.92Q70.42 3.92 72.57 5.17Q74.73 6.41 76.00 8.60Q77.28 10.78 77.28 13.65ZM73.08 13.65L73.08 13.65Q73.08 11.87 72.36 10.56Q71.65 9.24 70.44 8.51Q69.23 7.77 67.76 7.77L67.76 7.77Q66.29 7.77 65.08 8.51Q63.88 9.24 63.16 10.56Q62.44 11.87 62.44 13.65L62.44 13.65Q62.44 15.40 63.16 16.72Q63.88 18.03 65.08 18.77Q66.29 19.50 67.76 19.50L67.76 19.50Q69.23 19.50 70.44 18.77Q71.65 18.03 72.36 16.72Q73.08 15.40 73.08 13.65Z"/></g>
        
      </svg>
    